<svg width="496" height="175" viewBox="0 0 496 175" fill="none" xmlns="http://www.w3.org/2000/svg">
<g clip-path="url(#clip0_3426_2089)">
<path d="M3.38867 148.253C3.38867 130.56 3.38867 112.882 3.40422 95.1895C4.81883 94.9736 6.23344 94.7422 7.64805 94.5262C7.64805 81.7078 7.6636 68.8894 7.67914 56.0555C6.26453 56.1789 4.84992 56.3178 3.41976 56.4412C3.41976 38.7484 3.41976 21.071 3.43531 3.37814C41.5987 3.16219 79.7777 3.00793 117.957 2.88453C121.05 6.18554 124.159 9.45571 127.253 12.7104C130.393 9.394 133.533 6.09299 136.658 2.83825C162.525 2.77655 188.392 2.73028 214.259 2.71485C215.814 6.4632 217.368 10.1961 218.923 13.929C220.493 10.1807 222.078 6.44777 223.648 2.71485C249.469 2.71485 275.274 2.71485 301.094 2.7457C303.815 5.44513 306.535 8.15998 309.271 10.8748C311.992 8.17541 314.712 5.47598 317.432 2.76113C375.82 2.85368 434.192 3.05421 492.549 3.37814C492.549 21.071 492.549 38.7484 492.564 56.4412C489.797 56.1789 487.03 55.9321 484.263 55.6853C481.108 67.5165 477.967 79.1626 474.843 90.6391C474.843 91.2561 474.843 91.8731 474.843 92.5055C476.226 92.706 477.61 92.9066 478.978 93.1071C479.009 110.414 479.04 127.706 479.071 145.013C322.578 108.856 159.478 109.936 3.38867 148.237V148.253Z" fill="#0F0F0F"/>
<path d="M489.113 6.77138C489.113 22.1041 489.129 37.4369 489.145 52.7696C486.642 52.5537 484.123 52.3377 481.621 52.1372C478.216 64.8785 474.827 77.4192 471.439 89.7749C471.439 91.6259 471.439 93.477 471.439 95.328C472.822 95.5285 474.206 95.7445 475.574 95.945C475.605 110.954 475.636 125.947 475.667 140.956C465.936 138.796 456.173 136.776 446.38 134.894C442.307 134.107 438.219 133.351 434.146 132.611C416.735 129.48 399.278 126.78 381.758 124.544C380.266 124.358 378.774 124.158 377.281 123.973C359.14 121.721 340.952 119.947 322.733 118.651C321.614 118.574 320.495 118.497 319.391 118.42C303.1 117.309 286.777 116.584 270.455 116.229C268.574 116.183 266.693 116.152 264.812 116.121C237.67 115.689 210.528 116.306 183.433 117.972C181.257 118.111 179.065 118.25 176.889 118.389C166.131 119.114 155.374 120.008 144.648 121.073C142.347 121.304 140.031 121.536 137.73 121.782C114.071 124.281 90.4729 127.582 66.9842 131.685C65.6162 131.932 64.2482 132.164 62.8802 132.41C44.1172 135.773 25.4164 139.645 6.82433 144.041C6.82433 128.708 6.83988 113.376 6.85542 98.0429C8.27003 97.8115 9.68465 97.5955 11.0993 97.3642C11.1148 82.3708 11.1303 67.3774 11.1459 52.3994C9.73128 52.5228 8.30112 52.6462 6.88651 52.7542C6.88651 37.4215 6.90206 22.0887 6.9176 6.75596C24.3437 6.57085 41.7699 6.40118 59.196 6.24692C60.6106 7.85115 62.0253 9.42453 63.4554 11.0133C63.4554 9.40911 63.4554 7.8203 63.471 6.21607C81.0836 6.06182 98.6963 5.93842 116.309 5.83044C119.962 9.71761 123.6 13.5585 127.253 17.3686C130.953 13.4351 134.637 9.56336 138.337 5.70704C149.933 5.64534 161.53 5.59906 173.127 5.56821C174.588 7.03361 176.034 8.48359 177.495 9.94899C177.495 8.48359 177.495 7.01819 177.51 5.55278C188.936 5.52193 200.362 5.49108 211.788 5.47566C214.166 11.1984 216.544 16.9212 218.923 22.6286C221.332 16.8904 223.742 11.1676 226.151 5.46023C237.577 5.46023 249.003 5.46023 260.428 5.46023C260.428 6.86393 260.428 8.26764 260.428 9.68676C261.843 8.28306 263.258 6.87936 264.672 5.46023C276.269 5.46023 287.866 5.49108 299.462 5.50651C302.742 8.76125 306.007 12.016 309.287 15.3016C312.551 12.0777 315.831 8.82295 319.096 5.56821C330.319 5.59906 341.528 5.64534 352.751 5.70704C354.197 7.17244 355.627 8.65327 357.073 10.1341C357.073 8.66869 357.057 7.20329 357.042 5.73789C377.841 5.84586 398.656 5.96927 419.44 6.13895C423.14 6.1698 426.839 6.20065 430.539 6.2315C450.064 6.38575 469.589 6.58628 489.098 6.78681M122.714 76.8022C122.714 76.5246 122.714 76.2469 122.714 75.9847C122.651 76.0618 122.574 76.1389 122.512 76.2161C122.574 76.4166 122.636 76.6017 122.714 76.8022ZM496 -0.000323113C493.699 -0.000323113 491.399 -0.000323113 489.113 -0.000323113C469.589 -0.000323113 450.048 -0.000323113 430.524 -0.000323113C426.824 -0.000323113 423.124 -0.000323113 419.424 -0.000323113C398.625 -0.000323113 377.826 -0.000323113 357.026 -0.000323113C356.7 -0.000323113 356.358 -0.000323113 356.031 -0.000323113C354.927 -0.000323113 353.839 -0.000323113 352.736 -0.000323113C341.528 -0.000323113 330.304 -0.000323113 319.096 -0.000323113C317.992 -0.000323113 316.904 -0.000323113 315.8 -0.000323113C315.116 0.693815 314.432 1.37253 313.733 2.05124C312.256 3.53207 310.764 4.99747 309.287 6.4783C307.81 4.99747 306.318 3.53207 304.841 2.05124C304.141 1.3571 303.457 0.67839 302.758 -0.0157484C301.654 -0.0157484 300.55 -0.0157484 299.462 -0.0157484C288.752 -0.0157484 278.041 -0.0157484 267.33 -0.0157484C265.03 -0.0157484 262.729 -0.0157484 260.444 -0.0157484C249.018 -0.0157484 237.608 -0.0157484 226.182 -0.0157484C224.519 -0.0157484 222.871 -0.0157484 221.208 -0.0157484C220.679 1.2337 220.151 2.48315 219.638 3.71717C219.42 4.22621 219.203 4.73524 219 5.24428C218.783 4.73524 218.581 4.22621 218.363 3.71717C217.85 2.46772 217.322 1.21828 216.809 -0.0311737C215.145 -0.0311737 213.482 -0.0311737 211.834 -0.0311737C200.408 -0.0311737 188.983 -0.0311737 177.573 -0.0311737C177.215 -0.0311737 176.857 -0.0311737 176.5 -0.0311737C175.396 -0.0311737 174.293 -0.0311737 173.204 -0.0311737C161.608 -0.0311737 150.011 -0.0311737 138.414 -0.0311737C137.311 -0.0311737 136.191 -0.0311737 135.088 -0.0311737C134.388 0.693815 133.704 1.4188 133.005 2.14379C131.124 4.10281 129.243 6.09267 127.346 8.06711C125.481 6.10809 123.615 4.13366 121.765 2.15922C121.081 1.43423 120.397 0.693815 119.713 -0.0311737C118.61 -0.0311737 117.49 -0.0311737 116.387 -0.0311737C98.7741 -0.0311737 81.1614 -0.0311737 63.5331 -0.0311737C63.2067 -0.0311737 62.8802 -0.0311737 62.5538 -0.0311737C61.4501 -0.0311737 60.3464 -0.0311737 59.2427 -0.0311737C41.7699 -0.000323113 24.3282 -0.000323113 6.88651 -0.000323113C4.60137 -0.000323113 2.30069 -0.000323113 0 -0.000323113V60.2046C1.41461 60.0658 2.82922 59.927 4.24383 59.7881C4.24383 70.4162 4.24383 81.0442 4.24383 91.6722C2.82922 91.8882 1.41461 92.1041 0 92.3201V152.525C2.25405 151.954 4.52365 151.384 6.79324 150.828C25.3697 146.231 44.055 142.175 62.8181 138.658C64.186 138.395 65.554 138.149 66.922 137.902C90.3952 133.598 113.993 130.143 137.668 127.521C139.969 127.258 142.285 127.012 144.586 126.78C155.327 125.67 166.085 124.729 176.842 123.973C179.018 123.819 181.21 123.664 183.386 123.525C210.497 121.782 237.655 121.135 264.797 121.582C266.678 121.613 268.559 121.644 270.439 121.69C286.762 122.06 303.084 122.816 319.391 123.973C320.51 124.05 321.63 124.127 322.733 124.22C340.952 125.577 359.156 127.428 377.297 129.788C378.789 129.989 380.282 130.174 381.774 130.374C399.293 132.734 416.751 135.542 434.161 138.827C438.25 139.599 442.322 140.385 446.395 141.218C456.173 143.193 465.936 145.306 475.667 147.573C477.936 148.098 480.206 148.638 482.476 149.178C482.476 146.941 482.476 144.72 482.476 142.483C482.46 127.32 482.429 112.157 482.413 96.9785C482.413 94.7419 482.413 92.5206 482.413 90.2839C481.201 90.1143 479.988 89.9292 478.76 89.7595C481.481 79.733 484.201 69.5986 486.937 59.3099C487.668 59.3871 488.398 59.4488 489.145 59.5259C491.43 59.7419 493.715 59.9732 496 60.2046V-0.000323113Z" fill="white"/>
<path d="M65.0564 74.7201C61.823 78.6844 58.5897 82.695 55.3563 86.7673C48.563 87.5848 41.7853 88.4487 34.9921 89.3587C34.9765 94.881 34.961 100.403 34.9454 105.926C36.3756 105.694 37.8057 105.478 39.2515 105.247C39.2359 111.803 39.2048 118.343 39.1893 124.899C31.4011 126.333 23.6285 127.86 15.856 129.465C15.856 122.677 15.8715 115.89 15.887 109.103C17.3017 108.856 18.7163 108.61 20.1309 108.378C20.1775 85.3327 20.2242 62.3028 20.2708 39.2574C18.8562 39.3499 17.426 39.4271 16.0114 39.5196C16.0114 32.7325 16.027 25.9453 16.0425 19.1582C29.2404 18.7572 42.4538 18.387 55.6672 18.063C58.885 21.6417 62.0873 25.1741 65.2896 28.6756C65.2119 44.0238 65.1342 59.3874 65.072 74.7356L65.0564 74.7201ZM50.1953 68.0718C50.2419 57.8911 50.273 47.7104 50.3196 37.5297C45.2674 37.792 40.1997 38.0851 35.1475 38.3627C35.1164 48.7748 35.0853 59.1869 35.0543 69.5835C40.0909 69.0591 45.1431 68.55 50.1953 68.0564V68.0718Z" fill="white"/>
<path d="M124.455 112.42C119.107 112.99 113.76 113.607 108.412 114.271C104.246 101.56 100.08 88.7109 95.9139 75.6611C94.4371 75.7845 92.9603 75.9233 91.4836 76.0467C91.4369 83.42 91.4058 90.7933 91.3592 98.1666C92.7894 97.9969 94.204 97.8427 95.6341 97.673C95.603 103.751 95.5719 109.828 95.5253 115.906C87.675 116.955 79.8558 118.081 72.021 119.299C72.0521 113.037 72.0832 106.789 72.1143 100.527C73.5289 100.342 74.959 100.156 76.3736 99.9714C76.4825 78.7153 76.5913 57.4438 76.7156 36.1877C75.2855 36.2494 73.8709 36.3266 72.4407 36.3883C72.4718 30.1256 72.5029 23.8784 72.534 17.6157C85.9184 17.3072 99.3183 17.045 112.718 16.7981C115.874 20.13 119.03 23.4465 122.201 26.732C122.139 38.4861 122.061 50.2556 121.999 62.0097C118.579 65.9894 115.143 70.0154 111.723 74.0877C114.055 81.1988 116.387 88.2481 118.719 95.2512C120.662 95.0661 122.605 94.881 124.548 94.7113C124.517 100.604 124.486 106.496 124.439 112.389L124.455 112.42ZM91.5924 57.6598C96.7534 57.305 101.93 56.9811 107.106 56.6571C107.153 49.4072 107.184 42.1728 107.231 34.9229C102.054 35.1234 96.8933 35.3239 91.7167 35.5399C91.6701 42.9132 91.639 50.2865 91.5924 57.6598Z" fill="white"/>
<path d="M178.91 98.2592C175.676 101.637 172.427 105.046 169.178 108.471C159.851 109.103 150.54 109.859 141.244 110.738C138.072 107.746 134.901 104.753 131.746 101.73C131.886 76.6483 132.025 51.5822 132.165 26.5007C135.368 23.0917 138.554 19.7135 141.757 16.3662C151.037 16.2428 160.318 16.1194 169.598 16.0269C172.8 19.2353 176.003 22.413 179.205 25.5906C179.112 49.8083 179.003 74.026 178.91 98.2437V98.2592ZM163.877 91.7343C163.971 72.2367 164.064 52.7237 164.157 33.2261C158.468 33.3495 152.778 33.4883 147.073 33.6426C146.964 53.4024 146.871 73.1468 146.762 92.9066C152.467 92.4747 158.172 92.089 163.877 91.7343Z" fill="white"/>
<path d="M227.706 105.956C227.706 100.403 227.706 94.8502 227.721 89.2971C229.105 89.2816 230.488 89.2508 231.872 89.2353C231.872 77.8515 231.903 66.4522 231.903 55.0683C227.535 65.4341 223.151 75.8462 218.767 86.2891C214.43 76.0159 210.109 65.7272 205.803 55.4077C205.772 66.8687 205.741 78.3297 205.709 89.7907C207.093 89.7444 208.477 89.7135 209.86 89.6673C209.86 95.2512 209.829 100.82 209.813 106.404C201.916 106.666 194.02 107.005 186.123 107.437C186.138 101.807 186.169 96.1767 186.185 90.5311C187.693 90.4694 189.185 90.3923 190.693 90.3306C190.755 71.1261 190.833 51.9216 190.895 32.7016C189.449 32.7171 188.004 32.7479 186.558 32.7633C186.573 27.1331 186.604 21.5029 186.62 15.8726C193.056 15.8264 199.476 15.7801 205.912 15.7492C210.218 26.1305 214.524 36.4654 218.845 46.7849C223.229 36.3728 227.597 26.007 231.95 15.6567C238.385 15.6567 244.806 15.6413 251.241 15.6413C251.241 21.1944 251.241 26.732 251.241 32.2851C249.811 32.2851 248.381 32.2851 246.951 32.2851C246.951 51.2428 246.951 70.1851 246.951 89.1428C248.443 89.1428 249.92 89.1428 251.412 89.1428C251.412 94.6959 251.412 100.234 251.412 105.787C243.515 105.756 235.603 105.818 227.706 105.956Z" fill="white"/>
<path d="M305.96 97.7038C302.742 100.743 299.524 103.766 296.307 106.789C286.979 106.404 277.637 106.126 268.294 105.956C265.092 102.763 261.89 99.5857 258.687 96.4081C258.672 72.6377 258.656 48.8828 258.641 25.1124C261.827 21.9656 264.999 18.8189 268.17 15.6567C277.45 15.6875 286.746 15.7184 296.027 15.7801C299.245 18.9885 302.478 22.2124 305.711 25.4363C305.789 49.5152 305.882 73.5941 305.96 97.673V97.7038ZM290.866 89.8215C290.819 70.725 290.757 51.6285 290.71 32.532C285.021 32.4703 279.316 32.4086 273.626 32.3777C273.657 51.3817 273.688 70.3856 273.719 89.3896C279.44 89.4976 285.161 89.6364 290.866 89.8215Z" fill="white"/>
<path d="M359.513 101.298C356.295 104.306 353.078 107.298 349.844 110.291C340.843 109.489 331.843 108.795 322.827 108.208C319.624 104.799 316.406 101.406 313.204 98.0432C313.111 73.8718 313.018 49.7157 312.924 25.5443C316.142 22.3821 319.36 19.2045 322.578 15.996C331.501 16.0886 340.424 16.1811 349.347 16.3045C352.596 19.6364 355.845 22.9991 359.093 26.3927C359.125 31.4522 359.156 36.5271 359.171 41.5866C354.181 41.4015 349.191 41.2318 344.201 41.0776C344.201 38.5632 344.17 36.0335 344.155 33.5192C338.76 33.3803 333.351 33.2569 327.957 33.1335C328.05 52.5848 328.127 72.0361 328.221 91.5029C333.63 91.8268 339.056 92.1816 344.465 92.5518C344.434 85.595 344.388 78.6536 344.357 71.6968C340.952 71.5117 337.532 71.3266 334.128 71.1569C334.097 65.4187 334.066 59.6805 334.05 53.9577C342.445 54.2662 350.855 54.6364 359.249 55.0375C359.327 70.4628 359.42 85.8726 359.513 101.298Z" fill="white"/>
<path d="M417.652 107.777C414.419 110.862 411.185 113.916 407.936 116.955C398.858 115.674 389.78 114.517 380.686 113.453C377.468 109.72 374.25 106.034 371.032 102.378C370.908 79.6871 370.768 56.9965 370.644 34.2904C369.213 34.2442 367.783 34.1979 366.369 34.1516C366.338 28.29 366.306 22.413 366.275 16.5513C374.11 16.6747 381.945 16.7982 389.78 16.9524C389.811 22.9683 389.842 28.9687 389.889 34.9846C388.458 34.9229 387.044 34.8766 385.614 34.8303C385.738 55.2688 385.847 75.7074 385.971 96.1459C391.552 96.7166 397.133 97.3182 402.713 97.9506C402.589 77.1265 402.48 56.3023 402.356 35.4782C400.91 35.4165 399.464 35.3548 398.034 35.3085C398.003 29.2464 397.972 23.1842 397.925 17.1221C405.776 17.2763 413.626 17.446 421.476 17.6157C421.507 23.8629 421.539 30.0948 421.57 36.342C420.139 36.2803 418.725 36.2032 417.295 36.1415C417.419 60.0198 417.543 83.8982 417.668 107.792L417.652 107.777Z" fill="white"/>
<path d="M462.329 86.3971C462.345 92.9837 462.376 99.5549 462.391 106.141C463.775 106.357 465.158 106.589 466.542 106.805C466.557 113.453 466.573 120.101 466.588 126.734C458.816 125.223 451.012 123.803 443.208 122.446C443.177 116.029 443.146 109.597 443.131 103.18C444.53 103.38 445.929 103.596 447.328 103.797C447.297 97.3182 447.281 90.8396 447.25 84.3455C442.975 68.2415 438.7 52.446 434.41 36.9127C432.529 36.8202 430.632 36.7276 428.751 36.6351C428.72 30.3416 428.689 24.0326 428.658 17.7391C436.509 17.9242 444.343 18.1247 452.194 18.3253C452.225 24.8347 452.24 31.3442 452.271 37.8537C451.37 37.8074 450.453 37.7611 449.551 37.6994C451.292 44.394 453.033 51.1194 454.759 57.9066C456.406 51.4125 458.07 44.8568 459.733 38.2547C458.878 38.2085 458.023 38.1622 457.168 38.1159C457.153 31.5602 457.121 25.0044 457.106 18.4487C464.739 18.6492 472.371 18.8806 480.004 19.1119C480.004 25.8991 480.019 32.6862 480.035 39.4733C478.418 39.3654 476.817 39.2728 475.2 39.1803C470.894 55.2226 466.62 70.9409 462.345 86.3662L462.329 86.3971Z" fill="white"/>
</g>
<defs>
<clipPath id="clip0_3426_2089">
<rect width="496" height="175" fill="white"/>
</clipPath>
</defs>
</svg>
